<svg id="Layer_4" data-name="Layer 4" xmlns="http://www.w3.org/2000/svg" viewBox="0 0 487.2 630"><defs><style>.cls-1,.cls-2{fill:none;stroke:#fff;stroke-miterlimit:10;}.cls-1{stroke-linecap:round;stroke-width:7px;}.cls-2{stroke-width:9px;}</style></defs><path class="cls-1" d="M396.5,124.5s41,0,78,21" transform="translate(-160.41 -62.5)"/><path class="cls-1" d="M354.5,137.5s85-9,157,39" transform="translate(-160.41 -62.5)"/><path class="cls-1" d="M328.5,159.5s109-27,199,42" transform="translate(-160.41 -62.5)"/><path class="cls-1" d="M306.5,183.5s133-46,248,65" transform="translate(-160.41 -62.5)"/><path class="cls-1" d="M292.5,207.5s52-25,107-18" transform="translate(-160.41 -62.5)"/><path class="cls-1" d="M274.5,246.5s138-119,283,34" transform="translate(-160.41 -62.5)"/><path class="cls-1" d="M565.5,319.5s-74-100-179-93c-32,0-83,13-122,60" transform="translate(-160.41 -62.5)"/><path class="cls-1" d="M568.5,404.5s-75-135-161-135-137,71-160,118" transform="translate(-160.41 -62.5)"/><path class="cls-1" d="M274.5,544.5s11-88,35-134,63-62,63-62,44-17,73,10,49,51,66,80,44,47,54,52" transform="translate(-160.41 -62.5)"/><path class="cls-1" d="M560.5,505.5s-31-12-51-39-60-99-113-103-78,87-78,87-18,87-9,138" transform="translate(-160.41 -62.5)"/><path class="cls-1" d="M554.5,524.5s-35-16-51-35-58-80-84-96-48,0-48,0-33,26-38,74,9,129,23,150" transform="translate(-160.41 -62.5)"/><path class="cls-1" d="M412.5,407.5s-42-13-55,45,13,143,37,180" transform="translate(-160.41 -62.5)"/><path class="cls-1" d="M548.5,535.5s-32-10-52-28-36-42-38-45-24-39-51-39-34,40-34,40-15,109,70,164" transform="translate(-160.41 -62.5)"/><path class="cls-1" d="M543.5,552.5s-52-18-73-43-27-39-27-39-14-33-38-31-18,56-18,56,9,89,91,127" transform="translate(-160.41 -62.5)"/><path class="cls-1" d="M530.5,571.5s-35-11-53-27-46-51-54-69-13-15-13-15-20,4-5,46,44,75,92,102" transform="translate(-160.41 -62.5)"/><path class="cls-1" d="M516.5,586.5s-75-12-101-104" transform="translate(-160.41 -62.5)"/><path class="cls-1" d="M568.5,473.5s-26-19-42-45-66-119-138-109-118,100-132,174" transform="translate(-160.41 -62.5)"/><path class="cls-1" d="M568.5,443.5a433.66,433.66,0,0,1-30-41c-14-22-67-110-139-107s-117,63-152,138" transform="translate(-160.41 -62.5)"/><path class="cls-1" d="M570.5,355.5s-8-5-22-22-74-94-149-89-115,52-146,89" transform="translate(-160.41 -62.5)"/><polyline class="cls-2" points="76.5 4.5 4.5 4.5 4.5 76.5"/><polyline class="cls-2" points="4.51 553.5 4.51 625.5 76.51 625.5"/><polyline class="cls-2" points="410.7 625.5 482.7 625.5 482.7 553.5"/><polyline class="cls-2" points="480.59 76.5 480.59 4.5 408.59 4.5"/></svg>