<svg xmlns="http://www.w3.org/2000/svg" width="178.859" height="77.782" viewBox="0 0 178.859 77.782">
  <g id="Group_483" data-name="Group 483" transform="translate(-123.597 -38.609)">
    <path id="Subtraction_1" data-name="Subtraction 1" d="M35.356,64.326a11.921,11.921,0,0,1-8.485-3.515L9.9,43.841a12,12,0,0,1,0-16.97L26.87,9.9a12,12,0,0,1,16.97,0L60.811,26.87a12,12,0,0,1,0,16.97l-16.97,16.97A11.921,11.921,0,0,1,35.356,64.326ZM30.777,25.513A9.535,9.535,0,0,0,24,27.974a8.6,8.6,0,0,0-2.529,6.379,8.528,8.528,0,0,0,2.655,6.6,9.353,9.353,0,0,0,6.263,2.158,11.091,11.091,0,0,0,3.588-.468.335.335,0,0,0,.182-.338V40c0-.1-.033-.154-.1-.154a.2.2,0,0,0-.086.024,9.2,9.2,0,0,1-3.2.442,6.539,6.539,0,0,1-4.053-1.329,5.783,5.783,0,0,1-2-4.7A5.6,5.6,0,0,1,30.725,28.3a8.268,8.268,0,0,1,3.38.572.233.233,0,0,0,.1.029c.072,0,.108-.062.108-.186v-2.47a.276.276,0,0,0-.157-.286A8.943,8.943,0,0,0,30.777,25.513Zm9.49,12.844h6.215L47.989,42.7a.262.262,0,0,0,.26.156h2.912a.17.17,0,0,0,.136-.044c.03-.036.036-.092.02-.19L45.311,25.929c-.027-.132-.054-.156-.183-.156H41.515c-.1,0-.157.07-.157.182a3.92,3.92,0,0,1-.234,1.4L35.769,42.6a.257.257,0,0,0,.031.209.19.19,0,0,0,.152.052h2.6a.257.257,0,0,0,.286-.208l1.43-4.29Zm5.382-2.834H41.1c.122-.37.25-.756.381-1.151l.009-.026c.7-2.113,1.5-4.509,1.846-5.972h.026c.356,1.244,1.051,3.364,1.61,5.068.26.794.5,1.539.677,2.081Z" transform="translate(127.467 42.145)" fill="#5499c4"/>
    <g id="Rectangle_3" data-name="Rectangle 3" transform="translate(123.597 77.5) rotate(-45)" fill="none" stroke="#5499c4" stroke-width="1">
      <rect width="55" height="55" rx="15" stroke="none"/>
      <rect x="0.5" y="0.5" width="54" height="54" rx="14.5" fill="none"/>
    </g>
    <text id="Designs" transform="translate(198 84)" fill="#a3a3a3" font-size="20" font-family="Comfortaa"><tspan x="0" y="0">Designs</tspan></text>
    <g id="_23c_2" data-name="23c 2" transform="translate(-52 -24)">
      <path id="Subtraction_6" data-name="Subtraction 6" d="M10.021,15.242h0L1.932,13.074A2,2,0,0,1,.518,10.625L2.847,1.932A2,2,0,0,1,5.3.517L13.99,2.847A2,2,0,0,1,15.4,5.3l-1.635,6.1a3.356,3.356,0,0,0-1.052-2.069A4.105,4.105,0,0,0,9.781,8.3a4.307,4.307,0,0,0-2.927.953A4.024,4.024,0,0,0,5.6,12.025l1.626.167a2.609,2.609,0,0,1,.695-1.9,2.481,2.481,0,0,1,1.828-.685,2.434,2.434,0,0,1,1.753.646,2.121,2.121,0,0,1,.672,1.586,3.279,3.279,0,0,1-.738,1.9,11.211,11.211,0,0,1-1.412,1.5Zm2.316-.166h0l.1-.105a7.811,7.811,0,0,0,.527-.658A2,2,0,0,1,12.337,15.076Z" transform="translate(328.246 72.764)" fill="#5499c4"/>
      <path id="Subtraction_8" data-name="Subtraction 8" d="M16.824,24.871a2,2,0,0,1-.585-.088L7.632,22.152a2,2,0,0,1-1.327-2.5L7.422,16H9.061V14.479H7.887l1.049-3.432a2,2,0,0,1,2.5-1.327l6.017,1.839a2.868,2.868,0,0,1,.076.67,2.621,2.621,0,0,1-.77,1.916,2.565,2.565,0,0,1-1.885.774,2.3,2.3,0,0,1-1.595-.594,3.5,3.5,0,0,1-.927-1.938l-1.582.211a3.927,3.927,0,0,0,1.279,2.62,4.068,4.068,0,0,0,2.817,1.011,4.349,4.349,0,0,0,3.111-1.174,3.82,3.82,0,0,0,1.23-2.861q0-.05,0-.1l.837.256a2,2,0,0,1,1.327,2.5l-2.632,8.607A1.99,1.99,0,0,1,16.824,24.871Z" transform="translate(333 78)" fill="#5499c4"/>
      <path id="Subtraction_7" data-name="Subtraction 7" d="M16.53,10.659a2,2,0,0,1-.553-.078L14.316,10.1A3.667,3.667,0,0,1,15,10.028a2.487,2.487,0,0,1,1.72.621C16.649,10.656,16.587,10.659,16.53,10.659Zm-2.616-.67h0L11.171,9.2A2,2,0,0,1,9.8,6.728l1.379-4.806A2,2,0,0,1,13.651.552L18.458,1.93A2,2,0,0,1,19.829,4.4L18.451,9.21a1.986,1.986,0,0,1-.369.709,3.223,3.223,0,0,0-1.286-.6,3.073,3.073,0,0,0,1.327-1.089,2.734,2.734,0,0,0,.448-1.521A3.185,3.185,0,0,0,18.1,5.053a3.3,3.3,0,0,0-1.357-1.235A4.24,4.24,0,0,0,14.8,3.365a3.824,3.824,0,0,0-2.557.875,4.085,4.085,0,0,0-1.318,2.465l1.581.282A2.936,2.936,0,0,1,13.3,5.246a2.167,2.167,0,0,1,1.538-.58,2.1,2.1,0,0,1,1.521.571,1.935,1.935,0,0,1,.589,1.442,1.813,1.813,0,0,1-.808,1.626,3.277,3.277,0,0,1-1.82.527,2.427,2.427,0,0,1-.255-.018l-.148,1.173Z" transform="translate(333 77.697)" fill="#5499c4"/>
      <path id="Subtraction_9" data-name="Subtraction 9" d="M6.315,19.338a2,2,0,0,1-.519-.069L1.932,18.234a2,2,0,0,1-1.415-2.45l1.035-3.864A2,2,0,0,1,4,10.507l2.624.7-.016.013-.017.014a16.374,16.374,0,0,0-2.07,1.951A5.855,5.855,0,0,0,3.482,14.9,2.811,2.811,0,0,0,3.3,16H8.742l-.5,1.855A2,2,0,0,1,6.315,19.338Zm2.834-4.859H5.495a5.293,5.293,0,0,1,.668-.857c.267-.281.882-.827,1.829-1.622l.326-.277a2,2,0,0,1,.963,2.268l-.13.487Z" transform="translate(330.247 78)" fill="#5499c4"/>
    </g>
    <path id="Path_458" data-name="Path 458" d="M129.874,68.834,162.2,101.163" transform="translate(4.116 5.116)" fill="none" stroke="#fff" stroke-linecap="round" stroke-width="1"/>
    <path id="Path_459" data-name="Path 459" d="M154.8,102.141l32.084-32.084" transform="translate(4.754 4.137)" fill="none" stroke="#fff" stroke-linecap="round" stroke-width="1"/>
    <text id="De" transform="translate(156 62)" fill="#fff" font-size="12" font-family="OldLondonAlternate, Old London Alternate"><tspan x="0" y="0">De</tspan></text>
  </g>
</svg>
